{
	"accessors":[{
		"bufferView":0,
		"type":"SCALAR",
		"componentType":5123,
		"count":2400,
		"byteOffset":0,
		"min":[0],
		"max":[440]
	},
	{
		"bufferView":1,
		"type":"VEC3",
		"componentType":5126,
		"count":441,
		"byteOffset":0,
		"min":[-359.83880615234377,
		-5.100419044494629,
		-377.875],
		"max":[362.3933410644531,
		5.176149845123291,
		376.5429382324219]
	},
	{
		"bufferView":1,
		"type":"VEC3",
		"componentType":5126,
		"count":441,
		"byteOffset":12,
		"min":[-0.10789301246404648,
		0.9935868978500366,
		-0.07617256045341492],
		"max":[0.09709426760673523,
		0.9999940991401672,
		0.06309158354997635]
	},
	{
		"bufferView":1,
		"type":"VEC2",
		"componentType":5126,
		"count":441,
		"byteOffset":24,
		"min":[0.0,
		0.0],
		"max":[1.0,
		1.0]
	}],
	"asset":{
		"version":"2.0",
		"generator":"Created using the official Cinema 4D glTF Exporter 1.000x284978"
	},
	"buffers":[{
		"uri":"data:application/octet-stream;base64,",
		"byteLength":18912
	}],
	"scenes":[{
		"nodes":[0]
	}],
	"nodes":[{
		"name":"平面.1",
		"translation":[9.14439066867145e-15,
		3.435424327850342,
		-287.03607177734377],
		"rotation":[-0.003847393672913313,
		0.6228206157684326,
		0.6868347525596619,
		0.3746167719364166],
		"scale":[1.0,
		1.0,
		1.0],
		"children":[1]
	},
	{
		"name":"平面.1",
		"mesh":0
	}],
	"meshes":[{
		"name":"平面.1",
		"primitives":[{
			"attributes":{
				"POSITION":1,
				"NORMAL":2,
				"TEXCOORD_0":3
			},
			"indices":0,
			"material":0
		}]
	}],
	"bufferViews":[{
		"buffer":0,
		"byteOffset":0,
		"byteLength":4800,
		"target":34963
	},
	{
		"buffer":0,
		"byteOffset":4800,
		"byteStride":32,
		"byteLength":14112,
		"target":34962
	}],
	"materials":[{
		"pbrMetallicRoughness":{
			"baseColorFactor":[1.0,
			1.0,
			1.0,
			1.0],
			"metallicFactor":1.0,
			"roughnessFactor":1.0
		},
		"emissiveFactor":[0.0,
		0.0,
		0.0],
		"alphaMode":"OPAQUE",
		"doubleSided":false,
		"name":""
	}]
}